<svg xmlns="http://www.w3.org/2000/svg" width="80" height="53" fill="none" viewBox="0 0 80 53"><path fill="#f9b139" d="M56.905 25.8c-1.322.049-2.542-.35-3.74-.751a9 9 0 01-1.373-.566 3 3 0 01-.348-.206.38.38 0 01-.178-.48c.27-.948.315-1.947.128-2.914a4.92 4.92 0 00-2.01-3.027 10 10 0 00-.618-.413c-.313-.206-.325-.235-.203-.608a5.5 5.5 0 01.342-.771 28.4 28.4 0 012.226-3.63 14.5 14.5 0 012.356-2.422 20.4 20.4 0 014.19-2.772 18.2 18.2 0 015.282-1.696c.921-.141 1.853-.232 2.769-.424 1.695-.353 3.333-.848 4.802-1.826a6.1 6.1 0 002.368-2.71c.082-.195.175-.422.44-.402.266.02.36.263.427.472.128.41.2.835.212 1.264.093 2.574-.746 4.787-2.633 6.557a6.04 6.04 0 01-4.466 1.681c-.58-.02-1.13-.13-1.715-.178-1.503-.127-2.972-.034-4.376.566-.548.24-1.05.574-1.483.986-.102.093-.283.215-.201.359s.282.088.427.057c.46-.102.907-.26 1.373-.348a11.8 11.8 0 013.164-.139c.731.063 1.443.226 2.17.328a5.17 5.17 0 003.175-.565 8.1 8.1 0 002.596-2.236c.042-.053.076-.11.121-.16.105-.122.215-.258.396-.196.18.062.229.24.24.41.023.428-.009.858-.096 1.278-.565 3.089-2.393 5.206-5.159 6.568a9.56 9.56 0 01-4.989.944 8 8 0 01-1.395-.237 9.3 9.3 0 00-3.04-.34c-1.472.108-2.797.566-3.845 1.665a.1.1 0 00-.023.023c-.087.113-.282.209-.189.362.093.152.302.121.46.084q.327-.086.642-.206a8.9 8.9 0 014.766-.283c.63.12 1.251.283 1.884.38a6.8 6.8 0 003.23-.312 9.6 9.6 0 001.864-.87l.06-.034c.163-.09.324-.23.522-.074a.565.565 0 01.113.653q-.294.646-.661 1.255a12.1 12.1 0 01-4 4.15 11.8 11.8 0 01-4.238 1.599 9.6 9.6 0 01-1.766.155"/><path fill="#f84f37" d="M50.215 23.15a10.06 10.06 0 01-1.488 4.926 24.8 24.8 0 01-3.277 4.296 3.4 3.4 0 01-.43.381c-.13.1-.282.283-.438.167-.155-.116-.068-.282-.04-.44q.082-.467.184-.928c.424-1.823.676-3.683.752-5.554.048-1.845-.096-3.66-.828-5.37-1.254-2.94-3.466-4.805-6.554-5.613a12.6 12.6 0 00-5.238-.107c-2.68.438-5.184 1.413-7.613 2.586a46 46 0 00-4.218 2.354 16 16 0 01-3.84 1.812 7.62 7.62 0 01-6.215-.735c-1.098-.633-2.099-1.413-3.138-2.12a13 13 0 00-2.893-1.594 9 9 0 00-1.07-.308 3 3 0 01-.481-.15c-.364-.16-.393-.404-.085-.664q.321-.254.698-.413a20.7 20.7 0 013.39-1.13c2.605-.695 5.246-1.213 7.91-1.645q3.322-.537 6.67-.882a101 101 0 016.215-.424 60 60 0 013.69-.02 33.4 33.4 0 016.84.797c3.615.877 6.16 3.056 7.782 6.365.071.15.128.224.32.19a2.51 2.51 0 012.706 1.22c.531.885.687 1.855.69 3.002m-3.107-7.024a2.06 2.06 0 01-.531-1c-.06-.368.073-.498.443-.476q.32.03.641.023a1.49 1.49 0 001.475-1.13c.19-.596.2-1.234.028-1.835a8.02 8.02 0 00-2.785-4.174 2.83 2.83 0 00-1.613-.63c-.848-.057-1.438.282-1.695 1.085q-.067.208-.107.424a6.5 6.5 0 00.175 2.78 13.8 13.8 0 002.076 4.223q.109.153.257.269c.444.367.951.649 1.497.83a.55.55 0 00.393.015.9.9 0 00-.268-.404zm15.215 20.933a.8.8 0 00-.15.328c-.511 1.529-1.13 3.018-1.681 4.522a.24.24 0 01-.268.19c-.283-.015-.588 0-.879 0-.164 0-.215-.046-.217-.21 0-.777-.032-1.557-.043-2.334 0-1.004 0-2.01-.028-3.016-.026-.868-.026-1.735-.048-2.603 0-.308 0-.308.305-.311s.61 0 .915 0c.17 0 .207.06.204.215-.017.667 0 1.334-.037 1.998s-.014 1.376-.045 2.063c-.02.475-.045.947-.065 1.413a1 1 0 000 .133c.076-.02.073-.085.087-.136.444-1.551 1.09-3.027 1.65-4.536.122-.328.249-.653.367-.98a.223.223 0 01.246-.176q.323.017.644 0c.15 0 .192.054.19.198v1.388c0 1.085.022 2.168.028 3.25a9 9 0 00-.017 1.037c.203-.607.376-1.223.588-1.825q.672-1.894 1.33-3.793a.304.304 0 01.356-.255c.336.014.672 0 1.048 0-.178.503-.342.967-.514 1.43q-1.237 3.374-2.478 6.753c-.076.209-.155.319-.398.296a5 5 0 00-.78 0c-.183 0-.231-.068-.234-.237 0-.565 0-1.15-.037-1.724-.02-1.018-.056-2.04-.04-3.078m-38.42 13.346c.127.698.265 1.393.384 2.094.025.156.088.204.24.198a10 10 0 01.814 0c.164 0 .214-.065.237-.209.045-.282.099-.565.15-.865l1.062-5.992c.076-.43.144-.862.223-1.322h-1.04c-.166 0-.228.056-.254.228-.121.744-.262 1.487-.392 2.23a22 22 0 00-.385 2.745c0 .073 0 .164-.07.226A30 30 0 0024.589 48a214 214 0 01-.621-3.46c-.034-.189-.119-.24-.283-.231a7 7 0 01-.709 0c-.2 0-.262.062-.3.26-.321 1.865-.657 3.728-.99 5.59-.134.755-.27 1.51-.4 2.261-.047.269-.044.283.215.283h.814a.19.19 0 00.226-.187c.037-.245.082-.489.122-.734.243-1.535.618-3.05.678-4.608.166 1.086.384 2.157.576 3.231zm20.662-7.818a.89.89 0 01-1.093.786 3 3 0 01-1.187-.478c-.115.368-.14.73-.223 1.08-.034.139.031.198.159.246a4.1 4.1 0 001.74.322c1.087-.05 1.709-.565 1.977-1.608q.046-.2.08-.399c.282-1.509.542-3.015.796-4.522q.172-1.029.475-2.026c-.585-.088-1.113-.077-1.413.565a4 4 0 00-.511-.45 1.29 1.29 0 00-1.769.204c-.216.25-.384.537-.494.848a10 10 0 00-.554 2.17c-.11.6-.135 1.212-.073 1.818.118.91.79 1.3 1.635.944q.317-.16.614-.353c-.054.325-.097.588-.145.853zm-.209-5.087c.07-.212.139-.444.41-.483.271-.04.42.163.565.356a.42.42 0 01.087.373c-.155.805-.282 1.616-.437 2.425a1.4 1.4 0 01-.794.848.26.26 0 01-.34-.195 2 2 0 01-.03-.478c.088-.962.273-1.913.553-2.838zm19.033 9.327c-.794-.565-1.622-.404-2.128.438a4 4 0 00-.356.803 12.2 12.2 0 00-.525 2.888c-.034.395.009.792.127 1.17a.93.93 0 00.97.696c.34-.01.668-.126.94-.331.158-.099.308-.215.463-.325.08.138.141.257.215.367a.33.33 0 00.31.164h1.049c.118 0 .18-.025.2-.16.043-.3.108-.594.164-.9-.206-.065-.404 0-.602-.059a2 2 0 01.02-.232l.913-5.121c.096-.565.2-1.108.296-1.665.04-.232.026-.246-.214-.251h-.95c-.15 0-.217.05-.243.206-.138.811-.282 1.62-.435 2.464zm-1.13 1.413a1.3 1.3 0 01.2-.424.35.35 0 01.384-.15.76.76 0 01.498.715c-.142.831-.283 1.662-.444 2.488-.082.415-.44.602-.788.76-.153.07-.283-.028-.32-.204a1.6 1.6 0 01-.02-.472 14.3 14.3 0 01.492-2.699zm-25.813 2.496.797-4.489q.148-.848.282-1.695c.031-.17 0-.255-.195-.246h-.949c-.178 0-.24.07-.266.226q-.073.45-.152.899l-.282 1.557c-.094-.074-.145-.119-.198-.158a1.342 1.342 0 00-2.048.347q-.243.369-.379.789a11.5 11.5 0 00-.582 3.041c-.027.35.008.702.102 1.04a.95.95 0 001.034.778c.305-.014.6-.117.847-.297.181-.113.348-.243.531-.373q.071.214.204.398a.34.34 0 00.282.147h1.082a.16.16 0 00.181-.15q.1-.465.15-.938h-.593zm-2.09-2.468c.037-.164.11-.319.214-.452a.356.356 0 01.483-.093.72.72 0 01.379.718c-.136.822-.283 1.639-.424 2.459-.16.347-.45.618-.808.752a.257.257 0 01-.316-.227 1 1 0 010-.101v-.337a14 14 0 01.471-2.719m-14.88-11.933c-.025-.022 0-.048.023-.062q0-.136.02-.268c.098-.566.208-1.108.296-1.665q.095-.348.099-.71H18.71c-.138 0-.197.043-.22.187-.08.512-.175 1.02-.266 1.532a1567 1567 0 00-.847 4.805c-.099.565-.2 1.108-.283 1.665-.05.282-.045.296.26.296h.882c.172 0 .24-.053.282-.22.22-1.289.458-2.572.667-3.864a.85.85 0 01.316-.565q.128-.112.263-.215c.147-.11.314-.226.492-.119s.107.311.082.47c-.159.932-.331 1.865-.495 2.795-.099.565-.195 1.13-.3 1.715h1.89c.108 0 .173-.036.193-.144.048-.282.096-.565.147-.833.02-.122-.037-.162-.15-.156s-.283 0-.438 0a1 1 0 010-.124c.19-1.066.384-2.129.565-3.194a3.6 3.6 0 00.07-.941c-.053-.639-.412-.944-1.13-.868-.399.07-.778.227-1.11.46-.062.015-.076.049-.104.023m-17.99 2.733c.023-1.523-.031-3.046-.025-4.57 0-.237-.023-.472-.026-.71 0-.115-.042-.16-.158-.157H.463c-.477 0-.477 0-.457.491.062 1.608.127 3.22.186 4.83.034.959.06 1.917.088 2.875 0 .283 0 .283.282.283h.947a.336.336 0 00.39-.266c.824-2.154 1.663-4.302 2.5-6.453l.683-1.758h-1.13a.283.283 0 00-.316.218c-.667 1.854-1.444 3.674-2.043 5.542-.025.08-.022.184-.164.221-.065-.203.054-.37.057-.545m76.03-5.437h-1.03c-.342 0-.34 0-.399.336-.243 1.374-.491 2.747-.734 4.12-.223 1.267-.438 2.53-.67 3.794-.037.203.034.229.204.223q.439-.026.878 0c.215.017.283-.076.302-.26.074-.455.17-.907.23-1.365.05-.401.321-.628.595-.922.032.13.054.207.068.283.136.684.283 1.368.401 2.055.023.124.048.206.204.203h1.217c.11 0 .173-.04.19-.144.05-.282.099-.565.152-.83.023-.122-.03-.167-.147-.159h-.17c-.282 0-.282 0-.355-.308q-.21-1.043-.432-2.083a.42.42 0 01.096-.427q.545-.596 1.07-1.22.436-.465.814-.976h-1.147a.5.5 0 00-.438.192c-.486.594-1.017 1.148-1.475 1.764-.045.056-.067.15-.209.136.26-1.459.517-2.915.786-4.413m-.785 4.536-.028-.026.02-.02.017.023zm-35.03-.435c.1-.406.117-.829.048-1.241a.77.77 0 00-.659-.636 1.72 1.72 0 00-1.251.282c-.226.139-.438.306-.655.461-.252-.622-.283-.65-.803-.65-.46 0-.46 0-.489.48v.102c-.098 1.091-.347 2.157-.522 3.234-.113.69-.246 1.376-.365 2.066-.042.251-.03.26.232.263.263.002.61 0 .915 0 .159 0 .24-.029.283-.21.215-1.277.446-2.543.67-3.83a1.67 1.67 0 01.9-.946c.224-.05.32.02.325.252q.008.169-.02.336-.209 1.216-.431 2.43c-.116.65-.23 1.303-.348 1.979h1.921c.074 0 .136-.02.15-.102.05-.282.099-.58.15-.867.02-.116-.026-.164-.145-.162h-.471c.197-1.11.387-2.17.565-3.241m15.074 3.109c.19-1.077.382-2.154.565-3.23.078-.354.092-.718.04-1.075a.78.78 0 00-.659-.675 1.56 1.56 0 00-.985.135 4.2 4.2 0 00-.924.622 2 2 0 01-.076-.178c-.125-.342-.331-.565-.732-.486a1.2 1.2 0 01-.305 0c-.133 0-.175.048-.178.178q.005.305-.031.608c-.15 1.105-.368 2.199-.565 3.298-.116.675-.235 1.35-.36 2.063h1.283c.094 0 .147-.034.162-.13.014-.096.03-.152.045-.232l.666-3.759a.4.4 0 01.085-.251 4 4 0 01.636-.566.38.38 0 01.412-.056c.136.085.108.24.088.373q-.073.45-.156.899l-.63 3.527c-.022.13 0 .187.15.184h1.726a.16.16 0 00.184-.153c.05-.282.099-.565.15-.83.025-.128-.046-.15-.153-.153a1.1 1.1 0 01-.435-.029l.003-.084zm-4.237 5.89a1.287 1.287 0 00-1.738.243 2.5 2.5 0 00-.457.786 10.5 10.5 0 00-.656 3.538 2.3 2.3 0 00.161.927.92.92 0 00.848.597c.42-.004.825-.154 1.147-.424q.155-.143.347-.235c.028.07.054.122.074.172a.503.503 0 00.565.365q.44-.026.881 0c.13 0 .212-.025.234-.17.046-.296.1-.59.153-.887-.212-.068-.41 0-.619-.07.328-1.643.49-3.313.978-4.927-.91-.074-.907-.082-1.413.548a2.8 2.8 0 00-.5-.463zm-.975 1.529q.056-.233.195-.427a.36.36 0 01.446-.136.74.74 0 01.435.721 161 161 0 01-.432 2.49 1.44 1.44 0 01-.814.746.248.248 0 01-.305-.24c-.02-.144-.017-.282-.025-.43a15 15 0 01.506-2.724zM8.983 35.95c-.208-.014-.282.073-.304.257-.246 1.413-.5 2.827-.74 4.226a2.6 2.6 0 00-.015 1.173.75.75 0 00.63.587 1.76 1.76 0 001.314-.31c.184-.12.356-.258.542-.393q.108.241.257.46a.35.35 0 00.283.159h1.085c.11 0 .155-.04.172-.15.054-.317.116-.633.175-.95-.212-.076-.41 0-.604-.068 0-.079 0-.155.017-.231l.364-2.064c.144-.808.282-1.62.43-2.428.042-.24.028-.254-.207-.257h-.912c-.195 0-.269.046-.303.252-.206 1.232-.46 2.459-.635 3.697a1.41 1.41 0 01-.695.966.35.35 0 01-.41.06c-.127-.08-.099-.226-.082-.342.048-.36.11-.712.173-1.069.206-1.175.415-2.348.63-3.56-.421-.01-.794.01-1.164-.015M55.88 52.693c.282 0 .282 0 .333-.282q.32-1.815.633-3.626a.7.7 0 01.155-.436c.21-.25.473-.453.769-.593.189-.065.307.022.316.229q.005.187-.028.37-.246 1.4-.497 2.792-.12.666-.235 1.332c-.014.09-.068.217.11.217h1.76a.14.14 0 00.144-.078.14.14 0 00.012-.057c.036-.243.084-.486.132-.73.029-.152 0-.234-.183-.223a.7.7 0 01-.39-.037c0-.059 0-.104.017-.147q.263-1.515.523-3.03c.1-.394.12-.804.056-1.206a.78.78 0 00-.802-.679 2.12 2.12 0 00-1.427.526c-.102.076-.186.192-.322.22-.257-.624-.283-.644-.95-.641q-.067.005-.135 0c-.133-.014-.178.042-.18.172q-.082 1.353-.376 2.677c-.175 1.063-.368 2.125-.565 3.233zm13.297-11.887a2.4 2.4 0 01-1.014.22.603.603 0 01-.638-.565 3.1 3.1 0 01.073-1.006c.048-.308.054-.308.373-.308h1.828c.206 0 .308-.043.33-.266.031-.283.093-.565.15-.865q.108-.462.107-.938c-.025-.616-.3-1.02-.847-1.153-1.181-.283-2.283 0-2.8 1.303a8.3 8.3 0 00-.44 1.557 7.2 7.2 0 00-.159 2.018c.06.675.32 1.328 1.345 1.413a4.7 4.7 0 001.853-.305.2.2 0 00.153-.161c.05-.368.152-.727.175-1.15-.206.076-.345.146-.492.206zm-1.096-3.545a.63.63 0 01.664-.358.31.31 0 01.302.305q.007.118 0 .237c-.017.659-.017.659-.678.659h-.545c.042-.292.127-.576.254-.843zm-17.188 3.54a2.6 2.6 0 01-.915.225c-.497 0-.746-.198-.771-.687a5 5 0 01.104-1.006c.02-.17.096-.195.24-.195h1.695c.566 0 .532 0 .628-.506.076-.42.155-.848.209-1.266.093-.774-.257-1.328-.921-1.475q-.297-.07-.602-.071c-.955.02-1.619.283-2.099 1.345a6.2 6.2 0 00-.39 1.252 8.1 8.1 0 00-.234 2.38c.062.814.471 1.346 1.342 1.413a4.7 4.7 0 001.844-.3.22.22 0 00.164-.191c.06-.354.122-.707.195-1.13-.209.084-.359.152-.491.211zm-1.13-3.525a.63.63 0 01.39-.348c.373-.116.596.042.593.432a4 4 0 01-.053.503c-.026.178-.085.255-.283.243-.282-.014-.582 0-.89 0 .036-.289.121-.57.252-.83zm-8.757 14.089c-.295.144-.61.24-.935.283-.452.053-.896-.1-.87-.747 0-.305.05-.604.087-.907.02-.184.105-.215.263-.215h1.624c.54 0 .565 0 .667-.542q.13-.611.195-1.233c.062-.867-.283-1.325-1.014-1.46a2.9 2.9 0 00-1.13.019 1.8 1.8 0 00-1.173.789q-.226.339-.361.723a10 10 0 00-.537 2.745c-.03.371.01.745.116 1.102a1.13 1.13 0 00.918.848c.74.117 1.498.019 2.184-.283a.17.17 0 00.096-.119c.065-.364.13-.726.203-1.15a4 4 0 00-.336.147zm-1.238-3.46a.6.6 0 01.605-.341.32.32 0 01.327.202.3.3 0 01.023.134q.014.373-.073.738c-.017.107-.085.116-.167.116h-.975a3.1 3.1 0 01.258-.848zm-9.04 3.454c-.286.135-.59.23-.901.283-.605.099-.938-.184-.918-.791 0-.283.048-.566.085-.848.025-.193.107-.235.282-.232h1.978c.158 0 .226-.05.248-.198q.18-.827.26-1.67c.02-.752-.215-1.278-1.172-1.396q-.337-.03-.675 0a1.83 1.83 0 00-1.492.833 3.5 3.5 0 00-.413.848 10 10 0 00-.477 2.38c-.045.393-.028.79.05 1.179a1.21 1.21 0 001.089 1.048 4.1 4.1 0 002.053-.282.2.2 0 00.133-.176c.06-.353.124-.706.2-1.13zm-1.263-3.456a.6.6 0 01.37-.317c.39-.099.585.048.582.45v.135c-.034.583-.034.583-.616.583H29.2c.048-.295.137-.582.265-.851m-.254-7.103a2.5 2.5 0 01-.98.226.625.625 0 01-.7-.619 3.4 3.4 0 01.084-.972c.042-.283.05-.283.353-.283h1.896c.113 0 .237.02.26-.138q.198-.91.282-1.837c0-.662-.282-1.094-.847-1.236-1.162-.282-2.286-.017-2.811 1.267a8.6 8.6 0 00-.585 2.747c-.03.43.038.86.198 1.26a1.46 1.46 0 001.293.99 4.1 4.1 0 001.715-.32.21.21 0 00.133-.178l.195-1.13c-.2.093-.342.164-.486.223m-1.102-3.558a.62.62 0 01.61-.342.33.33 0 01.326.2.3.3 0 01.025.133q.005.083 0 .167c-.014.704-.014.706-.706.7q-.258.026-.512-.022c.037-.292.123-.575.257-.836m-2.943-1.55.166-.932c.031-.155 0-.229-.186-.223h-1.014c-.139 0-.198.053-.218.195-.042.31-.102.622-.158.932s-.057.283-.34.283c-.564 0-.564 0-.646.565-.023.167-.15.362-.05.49.098.127.335.039.508.062h.034c.183-.02.231.053.197.234-.138.755-.262 1.51-.395 2.261q-.177.841-.263 1.696c-.031.565.17.806.667.848a3.75 3.75 0 001.503-.147c.104-.034.189-.076.209-.195l.152-.904c-.206.028-.37.065-.537.073-.435.028-.54-.08-.468-.5.175-1.057.364-2.109.548-3.166.025-.15.087-.237.265-.223.226.017.452 0 .678 0 .113 0 .187-.02.206-.158.048-.311.125-.614.156-.956h-1.01a.35.35 0 01-.005-.234m7.246 5.272c-.15 0-.17-.06-.147-.184l.492-2.758c.257-1.453.514-2.906.776-4.398h-1.935a.124.124 0 00-.141.11q-.084.479-.164.961c.21.076.421-.02.616.07-.43 2.443-.848 4.868-1.291 7.327h1.915a.15.15 0 00.15-.079.2.2 0 00.017-.057c.056-.32.11-.639.164-.972a1.5 1.5 0 00-.452-.012zm-25.94 0c-.18.017-.215-.07-.175-.22v-.102l.918-5.156q.144-.82.283-1.63c.017-.102.07-.235-.127-.235H5.625c-.07 0-.127.014-.144.105q-.107.495-.161 1h.296c.317 0 .322 0 .266.322q-.458 2.59-.907 5.167c-.096.543-.195 1.085-.283 1.63-.04.244-.03.25.21.252h1.59c.15 0 .223-.034.243-.197.04-.3.107-.597.17-.936-.187.006-.309-.003-.433.008zm39.93 11.73h1.887c.087 0 .147-.018.166-.12q.105-.466.15-.94c-.206-.066-.404.028-.582-.066 0-.079 0-.146.02-.214q.344-1.96.692-3.923c.167-.944.34-1.886.506-2.827.05-.282.045-.282-.232-.282H47.52c-.212 0-.308.053-.316.282a5 5 0 01-.108.566c-.045.257-.03.268.22.282a.74.74 0 01.357.046q-.63 3.544-1.271 7.195m-29.197-16.28c.036-.173-.043-.238-.195-.283a4 4 0 00-1.458-.235 1.59 1.59 0 00-1.399.812 3 3 0 00-.2.387 9.7 9.7 0 00-.672 3.055c-.04.372-.015.747.07 1.11a1.05 1.05 0 00.865.849 3.63 3.63 0 001.867-.167c.07-.026.153-.037.17-.136.073-.432.146-.862.228-1.328a4.2 4.2 0 01-1.053.387c-.444.07-.664-.085-.72-.531a3.2 3.2 0 01.059-.908c.06-.603.209-1.195.443-1.755a.757.757 0 01.932-.48c.306.057.596.182.848.364.076-.41.133-.777.215-1.142m55.95.477c-.068-.099-.04-.192-.057-.282-.104-.498-.305-.662-.805-.662h-.282c-.141 0-.2.043-.2.192q.013.323-.032.642c-.203 1.232-.42 2.465-.63 3.697-.093.528-.18 1.06-.282 1.616h1.073c.345 0 .34 0 .398-.333q.283-1.695.6-3.36c.013-.088 0-.181.093-.24.44-.303.825-.733 1.443-.6.1.02.144-.02.161-.119.088-.531.181-1.06.283-1.625-.78.085-1.207.681-1.763 1.074M43.718 52.7c.192 0 .24-.068.282-.246.178-1.054.39-2.106.565-3.163a.97.97 0 01.472-.72c.333-.224.661-.444 1.09-.356.147.03.164-.057.184-.167.076-.444.158-.888.237-1.331.037-.204 0-.243-.211-.19a2 2 0 00-.769.41c-.243.198-.483.401-.743.62l-.087-.354c-.122-.455-.283-.59-.76-.59q-.12.005-.238 0c-.172-.02-.237.041-.234.225q-.017.714-.161 1.413c-.254 1.464-.511 2.931-.777 4.45.387-.007.771-.015 1.15 0M36.373 36a.4.4 0 00-.08-.04h-1.285c-.22 0-.494-.099-.653.049-.158.147-.11.424-.15.644-.073.401-.07.413.331.413.19 0 .224.062.192.24-.22 1.193-.429 2.39-.638 3.587-.07.392-.133.788-.203 1.21h1.892a.16.16 0 00.187-.148q.062-.398.138-.797c.031-.158-.042-.192-.183-.19a.9.9 0 01-.413-.033q.438-2.473.87-4.935zm.415-1.718a.684.684 0 00-.692-.778 1.045 1.045 0 00-.995.778.692.692 0 00.667.91 1.05 1.05 0 001.02-.91"/></svg>